# xmcd
#
# Track frame offsets: 
#        150
#        20186
#        38043
#        65106
#        76547
#        90566
#        103187
#        130014
#        147740
#        168069
#        187398
#
# Disc length: 2740 seconds
#
# Revision: 0
# Processed by: cddbd v1.5.2PL0 Copyright (c) Steve Scherf et al.
# Submitted via: ExactAudioCopy v0.99pb5
#
DISCID=980ab20b
DTITLE=Chaz De Palo - Flirtin' With The Blues
DYEAR=2006
DGENRE=Blues
TTITLE0=Don't You Lie To Me 
TTITLE1=Stevie's Favorite Shuffle
TTITLE2=Sunday Mornin' Blues
TTITLE3=Flirtin' With The Blues
TTITLE4=Long Grey Mare
TTITLE5=Checkin' On My Baby
TTITLE6=Stormin'
TTITLE7=I Only Need A Little
TTITLE8=Let Me Love You Baby
TTITLE9=Chicago 101
TTITLE10=Big Blues Star
EXTD=
EXTT0=
EXTT1=
EXTT2=
EXTT3=
EXTT4=
EXTT5=
EXTT6=
EXTT7=
EXTT8=
EXTT9=
EXTT10=
PLAYORDER=
